<svg width="1176" height="298" viewBox="0 0 1176 298" fill="none" xmlns="http://www.w3.org/2000/svg">
<path d="M1124.4 130.38V232.08C1124.4 234.289 1126.19 236.08 1128.4 236.08H1147.96C1150.17 236.08 1151.96 234.289 1151.96 232.08V130.38H1171.36C1173.57 130.38 1175.36 128.589 1175.36 126.38V111.24C1175.36 109.031 1173.57 107.24 1171.36 107.24H1151.96V78.48C1151.96 76.2708 1150.17 74.48 1147.96 74.48H1128.4C1126.19 74.48 1124.4 76.2708 1124.4 78.48V107.24H1106.3C1104.09 107.24 1102.3 109.031 1102.3 111.24V126.38C1102.3 128.589 1104.09 130.38 1106.3 130.38H1124.4Z" fill="#344054"/>
<path d="M1071.5 82.8C1066.3 82.8 1061.97 81.24 1058.5 78.12C1055.21 74.8267 1053.56 70.7533 1053.56 65.9C1053.56 61.0467 1055.21 57.06 1058.5 53.94C1061.97 50.6467 1066.3 49 1071.5 49C1076.7 49 1080.95 50.6467 1084.24 53.94C1087.71 57.06 1089.44 61.0467 1089.44 65.9C1089.44 70.7533 1087.71 74.8267 1084.24 78.12C1080.95 81.24 1076.7 82.8 1071.5 82.8ZM1061.72 236.2C1059.51 236.2 1057.72 234.409 1057.72 232.2V111.24C1057.72 109.031 1059.51 107.24 1061.72 107.24H1081.28C1083.49 107.24 1085.28 109.031 1085.28 111.24V232.2C1085.28 234.409 1083.49 236.2 1081.28 236.2H1061.72Z" fill="#344054"/>
<path d="M911.996 236.2C909.787 236.2 907.996 234.409 907.996 232.2V58.2002C907.996 55.9911 909.787 54.2002 911.996 54.2002H931.556C933.765 54.2002 935.556 55.9911 935.556 58.2002V132.2L1006.13 55.492C1006.89 54.6687 1007.95 54.2002 1009.07 54.2002H1032.2C1035.7 54.2002 1037.51 58.3621 1035.14 60.9216L974.036 126.74L1039.08 230.069C1040.75 232.733 1038.84 236.2 1035.69 236.2H1011.62C1010.24 236.2 1008.95 235.488 1008.22 234.317L954.276 147.8L935.556 168.08V232.2C935.556 234.409 933.765 236.2 931.556 236.2H911.996Z" fill="#344054"/>
<path fill-rule="evenodd" clip-rule="evenodd" d="M750.647 289.4C750.647 291.609 752.438 293.4 754.647 293.4H774.207C776.417 293.4 778.207 291.609 778.207 289.4V216.44C782.714 223.72 788.781 229.353 796.407 233.34C804.207 237.327 813.134 239.32 823.187 239.32C835.841 239.32 846.934 236.46 856.467 230.74C866.001 224.847 873.454 216.873 878.827 206.82C884.374 196.593 887.147 184.98 887.147 171.98C887.147 158.98 884.374 147.367 878.827 137.14C873.454 126.913 866.001 118.853 856.467 112.96C846.934 107.067 835.927 104.12 823.447 104.12C812.007 104.12 802.647 106.46 795.367 111.14C788.087 115.82 782.367 121.193 778.207 127.26V111.24C778.207 109.031 776.417 107.24 774.207 107.24H754.647C752.438 107.24 750.647 109.031 750.647 111.24V289.4ZM823.841 211.2C845.932 211.2 863.841 193.292 863.841 171.2C863.841 149.109 845.932 131.2 823.841 131.2C801.749 131.2 783.841 149.109 783.841 171.2C783.841 193.292 801.749 211.2 823.841 211.2Z" fill="#344054"/>
<path d="M659.093 239.32C648.173 239.32 639.16 237.5 632.053 233.86C624.946 230.22 619.66 225.453 616.193 219.56C612.727 213.493 610.993 206.907 610.993 199.8C610.993 187.32 615.846 177.44 625.553 170.16C635.26 162.88 649.127 159.24 667.153 159.24H700.953V156.9C700.953 146.847 698.18 139.307 692.633 134.28C687.26 129.253 680.24 126.74 671.573 126.74C663.947 126.74 657.273 128.647 651.553 132.46C646.881 135.526 643.746 139.884 642.148 145.534C641.616 147.415 639.98 148.84 638.025 148.84H618.241C615.886 148.84 614.024 146.811 614.435 144.492C615.766 136.987 618.692 130.462 623.213 124.92C628.76 118.16 635.693 113.047 644.013 109.58C652.506 105.94 661.78 104.12 671.833 104.12C689.86 104.12 703.813 108.887 713.693 118.42C723.573 127.78 728.513 140.607 728.513 156.9V232.2C728.513 234.409 726.722 236.2 724.513 236.2H706.253C704.044 236.2 702.253 234.409 702.253 232.2V214.1C698.613 221.207 693.326 227.187 686.393 232.04C679.46 236.893 670.36 239.32 659.093 239.32ZM664.553 216.96C672.006 216.96 678.246 215.227 683.273 211.76C688.473 208.12 692.46 203.353 695.233 197.46C698.18 191.567 700 185.067 700.693 177.96H670.013C659.093 177.96 651.293 179.867 646.613 183.68C642.106 187.493 639.853 192.26 639.853 197.98C639.853 203.873 642.02 208.553 646.353 212.02C650.86 215.313 656.926 216.96 664.553 216.96Z" fill="#344054"/>
<path d="M533.897 239.32C521.244 239.32 509.977 236.547 500.097 231C490.391 225.28 482.764 217.393 477.217 207.34C471.671 197.287 468.897 185.587 468.897 172.24C468.897 158.72 471.584 146.847 476.957 136.62C482.504 126.393 490.131 118.42 499.837 112.7C509.717 106.98 521.157 104.12 534.157 104.12C546.811 104.12 557.817 106.98 567.177 112.7C576.537 118.247 583.817 125.7 589.017 135.06C594.217 144.42 596.817 154.733 596.817 166C596.817 167.733 596.731 169.64 596.557 171.72C596.557 173.627 596.471 175.793 596.297 178.22H495.937C496.804 190.7 500.877 200.233 508.157 206.82C515.611 213.233 524.191 216.44 533.897 216.44C541.697 216.44 548.197 214.707 553.397 211.24C558.047 208.09 561.659 204.032 564.232 199.065C564.968 197.644 566.395 196.68 567.995 196.68H587.615C590.272 196.68 592.192 199.228 591.238 201.709C587.42 211.642 581.046 220.106 572.117 227.1C561.891 235.247 549.151 239.32 533.897 239.32ZM533.897 126.74C524.711 126.74 516.564 129.513 509.457 135.06C502.351 140.433 498.017 148.58 496.457 159.5H569.257C568.737 149.447 565.184 141.473 558.597 135.58C552.011 129.687 543.777 126.74 533.897 126.74Z" fill="#344054"/>
<path d="M354.301 236.2C352.092 236.2 350.301 234.409 350.301 232.2V58.2002C350.301 55.9911 352.092 54.2002 354.301 54.2002H373.861C376.07 54.2002 377.861 55.9911 377.861 58.2002V209.36C377.861 210.465 378.756 211.36 379.861 211.36H456.541C458.75 211.36 460.541 213.151 460.541 215.36V232.2C460.541 234.409 458.75 236.2 456.541 236.2H354.301Z" fill="#344054"/>
<path d="M259.141 64.3969L137.067 125.434C133.688 127.123 129.712 127.123 126.334 125.434L9.01683 66.7779C7.55592 66.0475 7.5392 63.9686 8.98817 63.2148L129.418 0.560561C130.804 -0.162139 132.443 -0.186889 133.848 0.491261L259.114 60.806C260.611 61.527 260.627 63.6537 259.141 64.3969Z" fill="#7CD4FD"/>
<path fill-rule="evenodd" clip-rule="evenodd" d="M139.65 145.891V293.555C139.65 296.522 142.768 298.456 145.426 297.139L270.563 235.131C272.241 234.29 273.3 232.577 273.3 230.701V76.1261C273.3 74.6394 271.736 73.6724 270.406 74.3372L145.179 136.946C141.791 138.64 139.65 142.103 139.65 145.891ZM206.515 139.534C204.419 140.598 202.764 142.366 201.842 144.529L180.927 193.561C179.133 197.766 180.419 202.652 184.051 205.429L218.022 231.402C221.088 233.746 225.229 234.117 228.663 232.354L240.063 226.5L199.781 195.955C198.677 195.118 198.29 193.634 198.845 192.364L226.291 129.5L206.515 139.534Z" fill="#0B4A6F"/>
<path fill-rule="evenodd" clip-rule="evenodd" d="M118.222 136.946C121.61 138.64 123.75 142.103 123.75 145.891V292.714C123.75 294.962 121.37 296.411 119.373 295.379L2.73735 235.132C1.0593 234.29 0 232.577 0 230.701V81.0714C0 79.5847 1.56462 78.6177 2.89442 79.2826L118.222 136.946ZM29.7197 203.745C26.9985 202.418 23.8465 204.478 23.9695 207.503L24.2737 214.983C24.3321 216.42 25.1575 217.715 26.4353 218.375L81.821 246.971C84.6231 248.418 87.9193 246.204 87.6404 243.063L86.8128 233.744C86.6887 232.348 85.8423 231.118 84.5819 230.503L29.7197 203.745Z" fill="#0BA5EC"/>
</svg>
